<?xml version="1.0" encoding="UTF-8"?>
<svg id="Layer_2" data-name="Layer 2" xmlns="http://www.w3.org/2000/svg" viewBox="0 0 367.5 209.31">
  <defs>
    <style>
      .cls-1 {
        fill: #000;
        stroke-width: 0px;
      }
    </style>
  </defs>
  <g id="svg3974">
    <g>
      <g>
        <path class="cls-1" d="M0,114.94v16.31c126.22-7.51,32.35-11.41,0-16.31Z"/>
        <path class="cls-1" d="M0,141.89v16.02l1.05.26c96.16-8.87,68.56-12.11-1.05-16.28Z"/>
        <path class="cls-1" d="M0,0v52.67c79.14-2.68,79.53-7.16,38.49-12.6l7.38-8.96c50.67,7.78,47.46,20.51,11.07,26.89,12.19,4.29,55.41,12.23,3.16,27.94,8.5,2.31,56.45,14.18-3.16,24.78,9.44,4.26,59.56,10.38,2.11,25.83,14.87,2.44,53.1,10.59,2.64,26.89,19.08,2,21.24,2.66,26.36,11.6v34.27h23.2V0H0Z"/>
        <path class="cls-1" d="M0,90.16v16.34c23.74-4.67,132.11-6.56,0-16.34Z"/>
        <path class="cls-1" d="M0,62.3v17.31c74.19-3.99,99.26-9.16,0-17.31Z"/>
      </g>
      <g>
        <path class="cls-1" d="M138.49,55.81h-12.66v-2.49h28.01v2.49h-12.65v33.82h-2.7v-33.82Z"/>
        <path class="cls-1" d="M160.7,53.32h2.7v16.81h23.24v-16.81h2.7v36.31h-2.7v-17.02h-23.24v17.02h-2.7v-36.31Z"/>
        <path class="cls-1" d="M198.77,53.32h25.83v2.49h-23.13v14.27h20.8v2.49h-20.8v14.58h23.4v2.49h-26.09v-36.31Z"/>
        <path class="cls-1" d="M127.71,110.51h12.05l7.17,23.81,7.94-23.92h9.82l7.93,23.92,7.17-23.81h11.82l-13.76,41.45h-9.94l-8.23-23.69-8.29,23.69h-9.94l-13.76-41.45Z"/>
        <path class="cls-1" d="M191.62,130.74v-.16c0-12.37,8.85-22.15,21.37-22.15,14.56,0,21.29,10.72,21.29,23.17,0,.94,0,2.04-.08,3.05h-28.34c1.17,4.62,4.54,6.96,9.16,6.96,3.6,0,6.34-1.33,9.4-4.3l8.22,6.81c-4.07,5.16-9.94,8.61-18.32,8.61-13.31,0-22.7-8.92-22.7-22ZM220.42,127.06c-.55-4.7-3.36-7.67-7.43-7.67s-6.58,2.97-7.36,7.67h14.79Z"/>
        <path class="cls-1" d="M242.37,110.51h21.11c5.17,0,8.82,1.29,11.23,3.65,1.64,1.7,2.64,3.88,2.64,6.7v.12c0,4.76-2.71,7.58-6.35,9.17,5,1.64,8.17,4.47,8.17,10.05v.12c0,7.06-5.76,11.35-15.58,11.35h-21.22v-41.15ZM266.12,123.21c0-2.29-1.82-3.53-5.17-3.53h-7.47v7.23h7.17c3.47,0,5.46-1.18,5.46-3.59v-.12ZM262.18,134.9h-8.7v7.58h8.82c3.53,0,5.47-1.35,5.47-3.76v-.12c0-2.23-1.77-3.71-5.59-3.71Z"/>
        <path class="cls-1" d="M287.96,110.51h21.11c5.17,0,8.82,1.29,11.23,3.65,1.64,1.7,2.64,3.88,2.64,6.7v.12c0,4.76-2.7,7.58-6.35,9.17,5,1.64,8.17,4.47,8.17,10.05v.12c0,7.06-5.76,11.35-15.58,11.35h-21.22v-41.15ZM311.71,123.21c0-2.29-1.82-3.53-5.17-3.53h-7.47v7.23h7.17c3.46,0,5.46-1.18,5.46-3.59v-.12ZM307.77,134.9h-8.7v7.58h8.82c3.53,0,5.47-1.35,5.47-3.76v-.12c0-2.23-1.76-3.71-5.59-3.71Z"/>
        <path class="cls-1" d="M340.46,136.26l-15.7-25.75h12.99l8.46,14.99,8.52-14.99h12.76l-15.64,25.57v15.58h-11.4v-15.4Z"/>
        <path class="cls-1" d="M146.33,169.25h2.59l16.91,36.57h-2.96l-4.62-10.17h-21.43l-4.62,10.17h-2.8l16.91-36.57ZM157.12,193.21l-9.54-21.01-9.6,21.01h19.14Z"/>
        <path class="cls-1" d="M165.63,169.51h3.01l11.41,32.32,10.64-32.42h2.07l10.64,32.42,11.41-32.32h2.8l-13.17,36.57h-2.18l-10.64-31.54-10.63,31.54h-2.18l-13.18-36.57Z"/>
        <path class="cls-1" d="M235.19,169.27h2.59l16.91,36.57h-2.95l-4.62-10.17h-21.43l-4.62,10.17h-2.8l16.91-36.57ZM245.98,193.24l-9.54-21.01-9.6,21.01h19.14Z"/>
        <path class="cls-1" d="M260.93,169.51h15.25c4.46,0,8.04,1.4,10.22,3.58,1.71,1.71,2.75,4.15,2.75,6.74v.1c0,6.07-4.51,9.55-10.64,10.37l11.98,15.51h-3.42l-11.57-15.04h-11.88v15.04h-2.7v-36.31ZM275.87,188.34c6.07,0,10.58-3.06,10.58-8.3v-.11c0-4.87-3.84-7.94-10.43-7.94h-12.4v16.34h12.24Z"/>
        <path class="cls-1" d="M297.18,169.51h12.09c11.41,0,19.3,7.83,19.3,18.05v.1c0,10.22-7.89,18.16-19.3,18.16h-12.09v-36.31ZM299.88,171.99v31.33h9.39c10.12,0,16.5-6.9,16.5-15.56v-.11c0-8.61-6.38-15.67-16.5-15.67h-9.39Z"/>
        <path class="cls-1" d="M333.54,200.53l1.76-2.02c4,3.68,7.68,5.39,13.02,5.39s9.18-3.06,9.18-7.21v-.11c0-3.84-2.02-6.07-10.27-7.73-8.71-1.76-12.25-4.72-12.25-10.22v-.1c0-5.39,4.93-9.54,11.67-9.54,5.29,0,8.77,1.45,12.45,4.41l-1.71,2.13c-3.42-2.96-6.85-4.1-10.84-4.1-5.34,0-8.87,3.06-8.87,6.85v.11c0,3.84,1.97,6.17,10.58,7.94,8.4,1.71,11.94,4.72,11.94,10.01v.1c0,5.86-5.03,9.91-12.04,9.91-5.81,0-10.27-1.92-14.63-5.81Z"/>
      </g>
    </g>
  </g>
</svg>