<?xml version="1.0" encoding="UTF-8"?>
<svg id="Layer_2" data-name="Layer 2" xmlns="http://www.w3.org/2000/svg" viewBox="0 0 140.46 80">
  <defs>
    <style>
      .cls-1 {
        fill: #121212;
        stroke-width: 0px;
        
      }
    </style>
  </defs>
  <g id="Layer_1-2" data-name="Layer 1">
    <g id="svg3974">
      <g>
        <g>
          <path class="cls-1" d="M0,43.93v6.23c48.24-2.87,12.36-4.36,0-6.23Z"/>
          <path class="cls-1" d="M0,54.23v6.12l.4.1c36.75-3.39,26.2-4.63-.4-6.22Z"/>
          <path class="cls-1" d="M0,0v20.13c30.25-1.02,30.4-2.74,14.71-4.82l2.82-3.42c19.37,2.97,18.14,7.84,4.23,10.28,4.66,1.64,21.18,4.67,1.21,10.68,3.25.88,21.58,5.42-1.21,9.47,3.61,1.63,22.76,3.97.81,9.87,5.68.93,20.3,4.05,1.01,10.28,7.29.76,8.12,1.02,10.08,4.43v13.1h8.87V0H0Z"/>
          <path class="cls-1" d="M0,34.46v6.25c9.07-1.78,50.49-2.51,0-6.25Z"/>
          <path class="cls-1" d="M0,23.81v6.62c28.36-1.53,37.94-3.5,0-6.62Z"/>
        </g>
        <g>
          <path class="cls-1" d="M52.93,21.33h-4.84v-.95h10.71v.95h-4.83v12.93h-1.03v-12.93Z"/>
          <path class="cls-1" d="M61.42,20.38h1.03v6.42h8.88v-6.42h1.03v13.88h-1.03v-6.51h-8.88v6.51h-1.03v-13.88Z"/>
          <path class="cls-1" d="M75.97,20.38h9.87v.95h-8.84v5.45h7.95v.95h-7.95v5.57h8.94v.95h-9.97v-13.88h0Z"/>
          <path class="cls-1" d="M48.81,42.24h4.61l2.74,9.1,3.03-9.14h3.75l3.03,9.14,2.74-9.1h4.52l-5.26,15.84h-3.8l-3.15-9.05-3.17,9.05h-3.8l-5.26-15.84h0Z"/>
          <path class="cls-1" d="M73.24,49.97v-.06c0-4.73,3.38-8.47,8.17-8.47,5.56,0,8.14,4.1,8.14,8.86,0,.36,0,.78-.03,1.17h-10.83c.45,1.77,1.74,2.66,3.5,2.66,1.38,0,2.42-.51,3.59-1.64l3.14,2.6c-1.56,1.97-3.8,3.29-7,3.29-5.09,0-8.68-3.41-8.68-8.41h0ZM84.25,48.56c-.21-1.8-1.28-2.93-2.84-2.93s-2.51,1.14-2.81,2.93h5.65Z"/>
          <path class="cls-1" d="M92.64,42.24h8.07c1.98,0,3.37.49,4.29,1.4.63.65,1.01,1.48,1.01,2.56v.05c0,1.82-1.04,2.9-2.43,3.5,1.91.63,3.12,1.71,3.12,3.84v.05c0,2.7-2.2,4.34-5.95,4.34h-8.11v-15.73h0ZM101.71,47.09c0-.88-.7-1.35-1.98-1.35h-2.86v2.76h2.74c1.33,0,2.09-.45,2.09-1.37v-.05h0ZM100.21,51.56h-3.33v2.9h3.37c1.35,0,2.09-.52,2.09-1.44v-.05c0-.85-.68-1.42-2.14-1.42h0Z"/>
          <path class="cls-1" d="M110.06,42.24h8.07c1.98,0,3.37.49,4.29,1.4.63.65,1.01,1.48,1.01,2.56v.05c0,1.82-1.03,2.9-2.43,3.5,1.91.63,3.12,1.71,3.12,3.84v.05c0,2.7-2.2,4.34-5.95,4.34h-8.11v-15.73h0ZM119.14,47.09c0-.88-.7-1.35-1.98-1.35h-2.86v2.76h2.74c1.32,0,2.09-.45,2.09-1.37v-.05h0ZM117.63,51.56h-3.33v2.9h3.37c1.35,0,2.09-.52,2.09-1.44v-.05c0-.85-.67-1.42-2.14-1.42h0Z"/>
          <path class="cls-1" d="M130.13,52.08l-6-9.84h4.96l3.23,5.73,3.26-5.73h4.88l-5.98,9.77v5.95h-4.36v-5.89h0Z"/>
          <path class="cls-1" d="M55.93,64.69h.99l6.46,13.98h-1.13l-1.77-3.89h-8.19l-1.77,3.89h-1.07l6.46-13.98h0ZM60.05,73.85l-3.65-8.03-3.67,8.03h7.32Z"/>
          <path class="cls-1" d="M63.31,64.79h1.15l4.36,12.35,4.07-12.39h.79l4.07,12.39,4.36-12.35h1.07l-5.03,13.98h-.83l-4.07-12.05-4.06,12.05h-.83l-5.04-13.98h0Z"/>
          <path class="cls-1" d="M89.89,64.7h.99l6.46,13.98h-1.13l-1.77-3.89h-8.19l-1.77,3.89h-1.07l6.46-13.98h0ZM94.02,73.86l-3.65-8.03-3.67,8.03h7.32Z"/>
          <path class="cls-1" d="M99.73,64.79h5.83c1.7,0,3.07.54,3.91,1.37.65.65,1.05,1.59,1.05,2.58v.04c0,2.32-1.72,3.65-4.07,3.96l4.58,5.93h-1.31l-4.42-5.75h-4.54v5.75h-1.03v-13.88h0ZM105.44,71.99c2.32,0,4.04-1.17,4.04-3.17v-.04c0-1.86-1.47-3.03-3.99-3.03h-4.74v6.25h4.68Z"/>
          <path class="cls-1" d="M113.58,64.79h4.62c4.36,0,7.38,2.99,7.38,6.9v.04c0,3.91-3.02,6.94-7.38,6.94h-4.62v-13.88h0ZM114.62,65.74v11.97h3.59c3.87,0,6.31-2.64,6.31-5.95v-.04c0-3.29-2.44-5.99-6.31-5.99h-3.59Z"/>
          <path class="cls-1" d="M127.48,76.64l.67-.77c1.53,1.41,2.94,2.06,4.98,2.06s3.51-1.17,3.51-2.76v-.04c0-1.47-.77-2.32-3.93-2.95-3.33-.67-4.68-1.8-4.68-3.91v-.04c0-2.06,1.88-3.65,4.46-3.65,2.02,0,3.35.55,4.76,1.69l-.65.81c-1.31-1.13-2.62-1.57-4.14-1.57-2.04,0-3.39,1.17-3.39,2.62v.04c0,1.47.75,2.36,4.04,3.03,3.21.65,4.56,1.8,4.56,3.83v.04c0,2.24-1.92,3.79-4.6,3.79-2.22,0-3.93-.73-5.59-2.22h0Z"/>
        </g>
      </g>
    </g>
  </g>
</svg>